<svg width="35" height="48" viewBox="0 0 35 48" fill="none" xmlns="http://www.w3.org/2000/svg">
<path d="M1.06836 6.01221L8.41461 11.848" stroke="#C7C7C7"/>
<path d="M29.1489 1.06836H5.73701L1.06836 6.01163V42.3996L5.73701 46.9996H29.1489L34.0235 42.3996V6.01163L29.1489 1.06836Z" stroke="#C7C7C7"/>
<path d="M27.5058 3.33398H7.41058L3.40332 7.78219V40.5259L7.41058 44.6652H27.5058L31.6898 40.5259V7.78219L27.5058 3.33398Z" stroke="#C7C7C7"/>
<path d="M25.6277 5.80566H9.04426L5.7373 9.73664V38.673L9.04426 42.331H25.6277L29.0805 38.673V9.73664L25.6277 5.80566Z" stroke="#C7C7C7"/>
<path d="M24.0452 8.55225H11.0711L8.48389 11.8921V36.4771L11.0711 39.585H24.0452L26.7465 36.4771V11.8921L24.0452 8.55225Z" stroke="#C7C7C7"/>
<path d="M5.66895 1.06836L11.0928 8.55193" stroke="#C7C7C7"/>
<path d="M29.2179 1L24 8.55222" stroke="#C7C7C7"/>
<path d="M33.955 5.94287L26.7461 11.8473" stroke="#C7C7C7"/>
<path d="M34.0923 42.4687L26.7461 36.4956" stroke="#C7C7C7"/>
<path d="M24 39.585L29.0806 46.9999" stroke="#C7C7C7"/>
<path d="M11.0239 39.585L5.7373 46.9999" stroke="#C7C7C7"/>
<path d="M8.48357 36.4956L1 42.4001" stroke="#C7C7C7"/>
</svg>
