<svg width="110" height="218" viewBox="0 0 110 218" fill="none" xmlns="http://www.w3.org/2000/svg">
<path d="M69.158 174.283L109 217.27" stroke="black"/>
<path d="M95.5 183.5L83.8364 160.652" stroke="black"/>
<path d="M70 40L84 52.5" stroke="black"/>
<path d="M34.5583 52.6602V84.1144V130.247V162.75" stroke="black"/>
<path d="M21.9766 174.283L34.5582 162.75L48.1884 197.349L69.1579 174.283" stroke="black"/>
<path d="M47.5 15L34.5 52L20.5 38.5" stroke="black"/>
<path d="M78.5943 3.38135L70.2066 40.0779L47.1401 14.9146" stroke="black"/>
<path d="M70.2063 40.0783L95 34.5L83.8365 52.66V160.653L69.1578 174.283L33.5097 129.199L16.7341 107.181L5.20093 71.5325L33.5097 52.66L70.2063 40.0783Z" stroke="black"/>
<path d="M109 1.28467L70.2064 40.0782L34.5583 84.1141L16.7342 107.181L5 137L34.5583 162.75L69.1579 174.283L95.5 183.5" stroke="black"/>
<path d="M109 217.27V1.28447C73.3519 -1.51146 1.846 15.1243 1.00722 104.035C0.168438 192.945 72.6529 216.571 109 217.27Z" stroke="black"/>
<path d="M109 1.5L95.3696 33.7873V183.719L109 217.27" stroke="black"/>
</svg>
