<svg width="28" height="50" viewBox="0 0 28 50" fill="none" xmlns="http://www.w3.org/2000/svg">
<path d="M14.3371 1C24.0146 9.06452 37.5629 29.9548 14.3371 49C4.27262 41.9032 -9.81771 22.3677 14.3371 1Z" stroke="#B1B1B1"/>
<path d="M11.0952 7.0483L6.11138 10.1935L6.06299 18.9031L7.80492 24.9515L11.0469 36.5644L14.2888 40.2418L17.9178 42.6612L17.3372 36.5644L20.6759 24.9515L22.1759 18.758L22.3211 10.2902L17.3372 7.22249L14.1436 9.56443L19.2243 5.83862" stroke="#B1B1B1"/>
<path d="M9.44999 5.88696L11.0468 7.09664L14.1919 9.516M14.1919 9.516L17.821 13.1934L22.2242 18.9031L27.0629 25.0966L22.2242 31.1934L17.2887 36.5644L14.2403 40.2902L10.4661 42.6612M14.1919 9.516L10.3693 13.1934L6.0629 18.9031L1.03064 25.0966L6.0629 31.1934L11.0468 36.5644L10.4661 42.6612M10.4661 42.6612L9.0629 44.3547" stroke="#B1B1B1"/>
<path d="M11.0953 7.04849L14.3372 1.56812L17.3856 7.29043L17.9178 13.242L20.6275 24.9517L22.2727 31.3388L23.0469 39.3711L17.9178 42.7098L14.3041 48.794L10.4662 42.7098L5.28882 39.4195L6.06301 31.3388L7.70817 24.9517L10.4179 13.242L11.0953 7.04849Z" stroke="#B1B1B1"/>
</svg>
