<svg width="38" height="48" viewBox="0 0 38 48" fill="none" xmlns="http://www.w3.org/2000/svg">
<path d="M10.447 15.2477L4.23511 9.31812" stroke="#B1B1B1"/>
<path d="M9.03552 23.436H0.282349" stroke="#B1B1B1"/>
<path d="M3.95337 37.8361L10.4477 31.9065" stroke="#B1B1B1"/>
<path d="M18.3529 38.6831V47.7186" stroke="#B1B1B1"/>
<path d="M26.5415 31.6243L33.3182 38.4009" stroke="#B1B1B1"/>
<path d="M27.9541 23.7185H36.9896" stroke="#B1B1B1"/>
<path d="M18.3529 0.282227V9.0354" stroke="#B1B1B1"/>
<path d="M32.7534 9.03613L26.5415 15.5304" stroke="#B1B1B1"/>
<path d="M10.4476 15.5302L18.3537 9.03589L26.5421 15.5302L27.9539 23.7186L26.5421 31.9071L18.3537 38.6837L10.4476 31.9071L9.03577 23.7186L10.4476 15.5302Z" stroke="#B1B1B1"/>
<path d="M36.7715 24.0006C36.7715 37.1047 28.5415 47.5012 18.6357 47.5012C8.72998 47.5012 0.5 37.1047 0.5 24.0006C0.5 10.8965 8.72998 0.5 18.6357 0.5C28.5415 0.5 36.7715 10.8965 36.7715 24.0006Z" stroke="#B1B1B1"/>
</svg>
