<svg width="49" height="49" viewBox="0 0 49 49" fill="none" xmlns="http://www.w3.org/2000/svg">
<path d="M37.2766 16.9711L47.8858 10.5828" stroke="#B1B1B1"/>
<path d="M38.6459 1L32.2576 11.7232" stroke="#B1B1B1"/>
<path d="M37.1626 32.2576L47.7718 38.5318" stroke="#B1B1B1"/>
<path d="M16.6287 37.5049L10.3545 48" stroke="#B1B1B1"/>
<path d="M32.1431 37.5049L38.5314 47.8859" stroke="#B1B1B1"/>
<path d="M1 38.6459L11.4951 32.2576" stroke="#B1B1B1"/>
<path d="M1.11401 10.4683L11.6091 16.8566" stroke="#B1B1B1"/>
<path d="M10.24 1.1145L16.7424 11.7237" stroke="#B1B1B1"/>
<path d="M38.6454 1H10.2402L1 10.5825V38.5313L10.2402 47.9997H38.6454L47.8857 38.5313V10.5825L38.6454 1Z" stroke="#B1B1B1"/>
<path d="M36.5256 4.42236H12.4745L4.65063 12.6093V36.488L12.4745 44.5775H36.5256L44.3494 36.488V12.6093L36.5256 4.42236Z" stroke="#B1B1B1"/>
<path d="M34.4072 8.073H14.3646L7.84473 14.7714V34.3085L14.3646 40.9272H34.4072L40.9271 34.3085V14.7714L34.4072 8.073Z" stroke="#B1B1B1"/>
<path d="M32.1953 11.7231H16.5759L11.4949 16.9795V32.3107L16.5759 37.5046H32.1953L37.2763 32.3107V16.9795L32.1953 11.7231Z" stroke="#B1B1B1"/>
</svg>
