<svg width="49" height="50" viewBox="0 0 49 50" fill="none" xmlns="http://www.w3.org/2000/svg">
<path d="M24.3688 14.866L37.4447 39.9151" stroke="#B1B1B1"/>
<path d="M16.3864 49.0002L24.3685 44.7466L32.088 49.0002" stroke="#B1B1B1"/>
<path d="M33.8738 15.811L34.714 25.211L41.3308 30.3574" stroke="#B1B1B1"/>
<path d="M24.3164 2.05249V14.9184L11.293 39.9675" stroke="#B1B1B1"/>
<path d="M1.05261 46.6365L11.3978 40.0198H37.3397L47.4749 46.6365" stroke="#B1B1B1"/>
<path d="M7.14417 30.4101L14.181 25.2112L14.9687 15.9688" stroke="#B1B1B1"/>
<path d="M14.2336 25.001L1.05261 46.5842L24.3688 44.7462L47.6324 46.5842L34.6615 25.2635L24.3688 14.7083L14.2336 25.001Z" stroke="#B1B1B1"/>
<path d="M14.1808 25.0536L24.316 2.05249L34.6613 25.0536L37.3395 39.8625L24.3685 44.7988L11.3451 39.8625L14.1808 25.0536Z" stroke="#B1B1B1"/>
<path d="M14.8637 15.9162L24.3162 2L33.8737 15.9162L41.4357 30.41L47.5273 46.6368L32.1407 48.9999H16.6491L1 46.6368L7.14413 30.41L14.8637 15.9162Z" stroke="#B1B1B1"/>
</svg>
