<svg width="50" height="50" viewBox="0 0 50 50" fill="none" xmlns="http://www.w3.org/2000/svg">
<path d="M34.7198 1.64491L24.7697 1C24.0326 1.09213 21.1213 1.3501 15.3724 1.64491C9.62342 1.93973 5.79079 3.97889 4.59309 4.96161C2.84261 7.6334 1.82917 12.0557 1.46065 15.3724C1.16583 18.0257 1.03071 22.9271 1 25.0461L1.46065 34.7198C1.90288 40.0265 3.73321 43.8714 4.59309 45.1305C7.32015 47.4154 12.9155 48.2937 15.3724 48.4472C15.5935 48.8157 21.8522 48.9693 24.9539 49L34.8119 48.7236C37.453 48.4165 43.2326 47.2679 45.2226 45.1305C47.2127 42.9931 48.2015 37.2994 48.4472 34.7198L49.0921 25.0461L48.5393 15.3724C47.8023 9.18119 46.0825 5.85221 45.3148 4.96161C42.0718 2.67678 36.9002 1.79846 34.7198 1.64491Z" stroke="#B1B1B1"/>
<path d="M14.6353 10.8576L24.8617 1.0918L35.1804 10.8576" stroke="#B1B1B1"/>
<path d="M39.2339 14.7275L48.9998 24.954L39.2339 35.2726" stroke="#B1B1B1"/>
<path d="M10.6737 35.3645L1 25.0459L10.6737 14.9115" stroke="#B1B1B1"/>
<path d="M35.3646 39.2343L24.7696 48.908L14.5431 39.2343" stroke="#B1B1B1"/>
<path d="M1.46069 34.7198L10.858 35.4569L15.7409 34.3513L25.2304 35.9175L33.9828 34.3513L39.0499 35.2726L48.4473 34.7198" stroke="#B1B1B1"/>
<path d="M1.36841 15.5563L10.8579 14.8193L15.8329 15.8327L25.2302 14.3586L33.8905 15.5563L39.1419 14.8193L48.4471 15.3721" stroke="#B1B1B1"/>
<path d="M14.543 10.9502L4.68506 4.96167L10.7657 14.7275L14.543 24.8619L10.7657 35.2726L4.68506 45.2227L14.543 39.1421L25.3223 35.9175L35.0881 39.1421L45.2225 45.2227L39.234 35.2726L35.733 24.8619L39.234 14.7275L45.2225 4.96167L35.0881 10.9502L25.3223 14.2669L14.543 10.9502Z" stroke="#B1B1B1"/>
<path d="M15.372 1.55249L14.5428 10.7655L15.8327 15.8327L14.5428 24.5851L15.8327 34.351L14.5428 39.326L15.372 48.5391" stroke="#B1B1B1"/>
<path d="M34.7197 1.64478L35.1804 10.8578L34.0748 15.6486L35.7332 24.8617L34.0748 34.3511L35.3647 39.234L34.7197 48.7235" stroke="#B1B1B1"/>
</svg>
