<svg width="54" height="50" viewBox="0 0 54 50" fill="none" xmlns="http://www.w3.org/2000/svg">
<path d="M8.16882 33.4155L13.7792 28.4285L21.5714 44.3246L26.8701 38.4025L32.4805 44.3246L40.2727 28.4285L45.2597 33.4155" stroke="#B1B1B1"/>
<path d="M53.0519 15.9609L44.3246 19.0778L50.5584 25.935" stroke="#B1B1B1"/>
<path d="M1.31177 15.9609L9.41566 19.0778L3.49359 25.935" stroke="#B1B1B1"/>
<path d="M34.6624 10.0389L37.7792 1.62329L42.4546 12.8441L49.3117 6.29862" stroke="#B1B1B1"/>
<path d="M5.05188 6.29862L11.5973 13.4674L15.961 1.62329L19.7012 10.0389" stroke="#B1B1B1"/>
<path d="M23.13 11.2856L26.8703 5.36353L31.2339 11.2856L26.8703 12.844L23.13 11.2856Z" stroke="#B1B1B1"/>
<path d="M34.3507 10.0391L26.8702 12.8443L19.3896 10.0391L11.9091 13.1559L9.72729 19.078L13.7792 28.117L26.5585 38.4027L40.2727 28.117L44.013 19.078L42.4546 13.1559L34.3507 10.0391Z" stroke="#B1B1B1"/>
<path d="M37.7792 1L26.8701 5.05195L15.961 1L5.05195 6.2987L1 15.961L3.18182 25.9351L8.16883 33.4156L21.2597 44.3247L26.8701 49L32.7922 44.3247L45.2597 33.4156L50.5584 25.9351L53.0519 15.961L49.6234 6.2987L37.7792 1Z" stroke="#B1B1B1"/>
</svg>
