<svg  viewBox="0 0 34 50" fill="none" xmlns="http://www.w3.org/2000/svg">
<path d="M4.79102 43.2502L10.791 37.5002" stroke="#B1B1B1"/>
<path d="M10.5411 47.7498L17.0411 40.9998V48.9998" stroke="#B1B1B1"/>
<path d="M17.0409 40.75L23.0409 47.75" stroke="#B1B1B1"/>
<path d="M23.2911 37.5002L29.2911 43.5002" stroke="#B1B1B1"/>
<path d="M25.2909 31L33.0409 33" stroke="#B1B1B1"/>
<path d="M21.291 22.5L27.791 15.25" stroke="#B1B1B1"/>
<path d="M6.29102 15.25L12.541 22.5" stroke="#B1B1B1"/>
<path d="M1.04102 32.75L8.79102 31" stroke="#B1B1B1"/>
<path d="M17.0409 1V21.25M17.0409 21.25L21.2909 22.5L25.2909 31L23.2909 37.5L17.0409 40.75L10.7909 37.5L8.79089 31L12.7909 22.5L17.0409 21.25Z" stroke="#B1B1B1"/>
<path d="M1.0409 32.75C0.240904 21.15 11.3742 6.75 17.0409 1C31.2409 16.2 33.6242 28.5 33.0409 32.75C32.2409 48.35 19.5409 49.75 13.2909 48.5C9.5409 48.0833 1.8409 44.35 1.0409 32.75Z" stroke="#B1B1B1"/>
</svg>
