<svg width="50" height="50" viewBox="0 0 50 50" fill="none" xmlns="http://www.w3.org/2000/svg">
<path d="M5.85549 8.21387L1 1L8.07514 5.71676L11.9595 11.6821L5.85549 8.21387Z" stroke="#B1B1B1"/>
<path d="M41.786 5.57803L48.9999 1L44.2831 7.79769L37.9016 11.6821L41.786 5.57803Z" stroke="#B1B1B1"/>
<path d="M44.0829 41.7935L48.9999 49.0001L41.8352 44.2437L37.9016 37.9019L44.0829 41.7935Z" stroke="#B1B1B1"/>
<path d="M5.71676 41.2312L1 49L8.07514 44.0058L11.9595 37.6243L5.71676 41.2312Z" stroke="#B1B1B1"/>
<path d="M41.7861 5.57837L8.07507 5.7171L25.1387 10.4339L41.7861 5.57837Z" stroke="#B1B1B1"/>
<path d="M5.7168 41.2313V8.0752L10.5723 24.7226L5.7168 41.2313Z" stroke="#B1B1B1"/>
<path d="M39.2889 25.0002L44.2832 7.79785L44.0057 41.6476L39.2889 25.0002Z" stroke="#B1B1B1"/>
<path d="M24.5837 39.2888L8.07507 44.0056L41.7861 44.1443L24.5837 39.2888Z" stroke="#B1B1B1"/>
<path d="M25.1388 10.5723L11.9596 11.6821L10.7111 24.7226L11.9596 37.6243L24.4452 39.1503L37.9018 38.0405L39.1504 25.1387L37.9018 11.6821L25.1388 10.5723Z" stroke="#B1B1B1"/>
<path d="M49 1H1V49H49V1Z" stroke="#B1B1B1"/>
</svg>
