<svg width="35" height="49" viewBox="0 0 35 49" fill="none" xmlns="http://www.w3.org/2000/svg">
<path d="M7.94519 44.1235L17.6359 40.8933L27.1651 44.1235" stroke="#B1B1B1"/>
<path d="M30.2336 7.78345L26.6803 24.0962L30.2336 41.0549" stroke="#B1B1B1"/>
<path d="M8.26794 24.0963L9.88306 9.56019L17.4741 7.94507L25.2267 9.56019L26.6803 24.0963L25.2267 39.1169L17.4741 40.8935L9.72155 39.1169L8.26794 24.0963Z" stroke="#B1B1B1"/>
<path d="M4.7146 7.78345L8.26786 24.0962L4.7146 40.8934" stroke="#B1B1B1"/>
<path d="M7.94519 4.87622L17.4744 7.94495L27.0036 4.87622" stroke="#B1B1B1"/>
<path d="M1 42.5083L9.56013 39.2781L6.65292 47.9997" stroke="#B1B1B1"/>
<path d="M28.7799 47.9997L25.2267 39.2781L34.1098 42.5083" stroke="#B1B1B1"/>
<path d="M28.6185 1L25.3883 9.39862L34.11 6.49141" stroke="#B1B1B1"/>
<path d="M6.49141 1L9.72165 9.56013L1 6.49141" stroke="#B1B1B1"/>
<path d="M28.457 1H6.65292L1 6.49141V42.5086L6.49141 48H28.7801L34.1099 42.5086V6.49141L28.457 1Z" stroke="#B1B1B1"/>
<path d="M27.0032 4.7146H7.94484L4.7146 7.94484V40.8933L7.94484 44.285H27.2253L30.2335 41.0548L30.395 7.94484L27.0032 4.7146Z" stroke="#B1B1B1"/>
</svg>
