<svg width="62" height="50" viewBox="0 0 62 50" fill="none" xmlns="http://www.w3.org/2000/svg">
<path d="M10.4739 6.51367L11.4212 13.6488L15.8423 31.1623" stroke="#B1B1B1"/>
<path d="M51.2105 6.51367L50.5789 13.6488L46.1578 31.1623" stroke="#B1B1B1"/>
<path d="M30.6843 1L22.158 6.59857M22.158 6.59857L11.4211 13.6486L26.2632 29.8648L22.158 13.6486V6.59857Z" stroke="#B1B1B1"/>
<path d="M30.684 1L39.8419 6.7314M39.8419 6.7314L50.8945 13.6486L35.7366 29.8648L39.8419 13.6486V6.7314Z" stroke="#B1B1B1"/>
<path d="M18.3679 1L21.8416 6.83782L30.9995 13.6486L39.8416 6.83782L43.6311 1" stroke="#B1B1B1"/>
<path d="M1 13.6487H61" stroke="#B1B1B1"/>
<path d="M35.7365 29.865L30.9997 49.0001L26.2628 29.865L30.9997 13.9731L35.7365 29.865Z" stroke="#B1B1B1"/>
<path d="M43.6316 1H18.3684L1 13.6486L31 48.9999L61 13.6486L43.6316 1Z" stroke="#B1B1B1"/>
</svg>
