<svg width="49" height="49" viewBox="0 0 49 49" fill="none" xmlns="http://www.w3.org/2000/svg">
<path d="M12.7502 41.9487L24.6178 37.7775L36.0153 36.0737H42.1253" stroke="#B1B1B1"/>
<path d="M42.0661 12.7502L37.8949 24.6178L36.0149 35.9565L36.3674 41.949" stroke="#B1B1B1"/>
<path d="M36.3088 6.93384L35.9563 13.0438L37.7776 24.2651L42.1838 36.1914L48.0001 38.4826" stroke="#B1B1B1"/>
<path d="M6.81592 36.25L12.9847 35.8975L24.3234 37.7187L36.4259 42.0662L38.7172 48" stroke="#B1B1B1"/>
<path d="M6.81592 12.7502L11.2222 24.559L12.9847 35.839L12.6909 42.0665L10.3997 47.9415" stroke="#B1B1B1"/>
<path d="M12.6912 6.87476L24.6174 11.281L36.0149 12.9848L42.1249 12.691L48.1174 10.4585" stroke="#B1B1B1"/>
<path d="M1.05884 10.5174L6.69884 12.7499L13.1613 13.1024L24.3239 11.2812L36.3676 6.81619L38.6589 1.11743" stroke="#B1B1B1"/>
<path d="M36.3088 6.87476H12.6326L6.75757 12.8673V36.191L12.6326 41.9485H36.3088L42.3013 36.191V12.8673L36.3088 6.87476Z" stroke="#B1B1B1"/>
<path d="M38.6588 1H10.4588L1 10.4588V38.5413L10.4588 47.9413H38.6588L48 38.5413V10.4588L38.6588 1Z" stroke="#B1B1B1"/>
<path d="M10.3412 1L12.6324 6.93376L12.9849 13.0438L11.2224 24.3825L6.87494 36.25L1.11743 38.6" stroke="#B1B1B1"/>
</svg>
